<svg width="24" height="20" viewBox="0 0 24 20" fill="none" xmlns="http://www.w3.org/2000/svg">
<rect x="0.25" y="0.25" width="23.5" height="19.5" rx="1.75" fill="white" stroke="#F5F5F5" stroke-width="0.5"/>
<mask id="mask0_2028_12841" style="mask-type:luminance" maskUnits="userSpaceOnUse" x="0" y="0" width="24" height="20">
<rect x="0.25" y="0.25" width="23.5" height="19.5" rx="1.75" fill="white" stroke="white" stroke-width="0.5"/>
</mask>
<g mask="url(#mask0_2028_12841)">
<path fill-rule="evenodd" clip-rule="evenodd" d="M0 6.66667H24V0H0V6.66667Z" fill="#04AAC8"/>
<path fill-rule="evenodd" clip-rule="evenodd" d="M0 20.0007H24V13.334H0V20.0007Z" fill="#23C840"/>
<path fill-rule="evenodd" clip-rule="evenodd" d="M4.00042 5.33398C4.35294 5.33398 4.68062 5.20984 4.95307 4.99699C4.9215 4.99942 4.88966 5.00065 4.85756 5.00065C4.06858 5.00065 3.42899 4.25446 3.42899 3.33398C3.42899 2.41351 4.06858 1.66732 4.85756 1.66732C4.88966 1.66732 4.9215 1.66855 4.95307 1.67098C4.68062 1.45813 4.35294 1.33398 4.00042 1.33398C3.05364 1.33398 2.28613 2.22941 2.28613 3.33398C2.28613 4.43855 3.05364 5.33398 4.00042 5.33398ZM6.85756 4.66732C6.85756 5.03551 6.60172 5.33398 6.28613 5.33398C5.97054 5.33398 5.7147 5.03551 5.7147 4.66732C5.7147 4.29913 5.97054 4.00065 6.28613 4.00065C6.60172 4.00065 6.85756 4.29913 6.85756 4.66732ZM8.57185 2.66732C8.88744 2.66732 9.14328 2.36884 9.14328 2.00065C9.14328 1.63246 8.88744 1.33398 8.57185 1.33398C8.25626 1.33398 8.00042 1.63246 8.00042 2.00065C8.00042 2.36884 8.25626 2.66732 8.57185 2.66732ZM11.429 2.00065C11.429 2.36884 11.1732 2.66732 10.8576 2.66732C10.542 2.66732 10.2861 2.36884 10.2861 2.00065C10.2861 1.63246 10.542 1.33398 10.8576 1.33398C11.1732 1.33398 11.429 1.63246 11.429 2.00065ZM10.8576 5.33398C11.1732 5.33398 11.429 5.03551 11.429 4.66732C11.429 4.29913 11.1732 4.00065 10.8576 4.00065C10.542 4.00065 10.2861 4.29913 10.2861 4.66732C10.2861 5.03551 10.542 5.33398 10.8576 5.33398ZM9.14328 4.66732C9.14328 5.03551 8.88744 5.33398 8.57185 5.33398C8.25626 5.33398 8.00042 5.03551 8.00042 4.66732C8.00042 4.29913 8.25626 4.00065 8.57185 4.00065C8.88744 4.00065 9.14328 4.29913 9.14328 4.66732Z" fill="white"/>
</g>
</svg>
