<svg width="24" height="20" viewBox="0 0 24 20" fill="none" xmlns="http://www.w3.org/2000/svg">
<rect width="24" height="20" fill="white"/>
<mask id="mask0_2028_12844" style="mask-type:luminance" maskUnits="userSpaceOnUse" x="0" y="0" width="24" height="20">
<rect width="24" height="20" fill="white"/>
</mask>
<g mask="url(#mask0_2028_12844)">
<rect width="24" height="20" fill="#30C6E0"/>
<path fill-rule="evenodd" clip-rule="evenodd" d="M11.9999 14C13.8934 14 15.4284 12.2091 15.4284 10C15.4284 7.79086 13.8934 6 11.9999 6C10.1063 6 8.57129 7.79086 8.57129 10C8.57129 12.2091 10.1063 14 11.9999 14Z" fill="#FFCD4B"/>
<path fill-rule="evenodd" clip-rule="evenodd" d="M10.6009 17.1486L11.9996 14.7127L13.3983 17.1486L13.7526 14.2459L15.9187 15.7325L15.1584 12.938L17.6628 13.1809L15.9385 11.048L18.2853 9.99908L15.9385 8.9502L17.6628 6.81727L15.1584 7.06019L15.9187 4.26565L13.7526 5.75226L13.3983 2.84961L11.9996 5.28547L10.6009 2.84961L10.2466 5.75226L8.0805 4.26565L8.8408 7.06019L6.33635 6.81727L8.06064 8.9502L5.71387 9.99908L8.06064 11.048L6.33635 13.1809L8.8408 12.938L8.0805 15.7325L10.2466 14.2459L10.6009 17.1486ZM15.9996 9.99908C15.9996 12.5764 14.2087 14.6657 11.9996 14.6657C9.79044 14.6657 7.99958 12.5764 7.99958 9.99908C7.99958 7.42175 9.79044 5.33241 11.9996 5.33241C14.2087 5.33241 15.9996 7.42175 15.9996 9.99908Z" fill="#FFCD4B"/>
<path fill-rule="evenodd" clip-rule="evenodd" d="M1.14258 1.66732C1.14258 1.48322 1.29182 1.33398 1.47591 1.33398H1.9521C2.1362 1.33398 2.28544 1.48322 2.28544 1.66732V2.33398C2.28544 2.51808 2.1362 2.66732 1.9521 2.66732H1.47591C1.29182 2.66732 1.14258 2.51808 1.14258 2.33398V1.66732ZM1.14258 4.33398C1.14258 4.14989 1.29182 4.00065 1.47591 4.00065H1.9521C2.1362 4.00065 2.28544 4.14989 2.28544 4.33398V5.00065C2.28544 5.18475 2.1362 5.33398 1.9521 5.33398H1.47591C1.29182 5.33398 1.14258 5.18475 1.14258 5.00065V4.33398ZM1.47591 6.66732C1.29182 6.66732 1.14258 6.81656 1.14258 7.00065V7.66732C1.14258 7.85141 1.29182 8.00065 1.47591 8.00065H1.9521C2.1362 8.00065 2.28544 7.85141 2.28544 7.66732V7.00065C2.28544 6.81656 2.1362 6.66732 1.9521 6.66732H1.47591ZM1.14258 9.66732C1.14258 9.48322 1.29182 9.33398 1.47591 9.33398H1.9521C2.1362 9.33398 2.28544 9.48322 2.28544 9.66732V10.334C2.28544 10.5181 2.1362 10.6673 1.9521 10.6673H1.47591C1.29182 10.6673 1.14258 10.5181 1.14258 10.334V9.66732ZM1.47591 12.0007C1.29182 12.0007 1.14258 12.1499 1.14258 12.334V13.0007C1.14258 13.1847 1.29182 13.334 1.47591 13.334H1.9521C2.1362 13.334 2.28544 13.1847 2.28544 13.0007V12.334C2.28544 12.1499 2.1362 12.0007 1.9521 12.0007H1.47591ZM1.14258 15.0007C1.14258 14.8166 1.29182 14.6673 1.47591 14.6673H1.9521C2.1362 14.6673 2.28544 14.8166 2.28544 15.0007V15.6673C2.28544 15.8514 2.1362 16.0007 1.9521 16.0007H1.47591C1.29182 16.0007 1.14258 15.8514 1.14258 15.6673V15.0007ZM1.47591 17.334C1.29182 17.334 1.14258 17.4832 1.14258 17.6673V18.334C1.14258 18.5181 1.29182 18.6673 1.47591 18.6673H1.9521C2.1362 18.6673 2.28544 18.5181 2.28544 18.334V17.6673C2.28544 17.4832 2.1362 17.334 1.9521 17.334H1.47591ZM2.28544 16.334C2.28544 16.1499 2.43467 16.0007 2.61877 16.0007H3.09496C3.27905 16.0007 3.42829 16.1499 3.42829 16.334V17.0007C3.42829 17.1847 3.27905 17.334 3.09496 17.334H2.61877C2.43467 17.334 2.28544 17.1847 2.28544 17.0007V16.334ZM2.61877 13.334C2.43467 13.334 2.28544 13.4832 2.28544 13.6673V14.334C2.28544 14.5181 2.43467 14.6673 2.61877 14.6673H3.09496C3.27905 14.6673 3.42829 14.5181 3.42829 14.334V13.6673C3.42829 13.4832 3.27905 13.334 3.09496 13.334H2.61877ZM2.28544 11.0007C2.28544 10.8166 2.43467 10.6673 2.61877 10.6673H3.09496C3.27905 10.6673 3.42829 10.8166 3.42829 11.0007V11.6673C3.42829 11.8514 3.27905 12.0007 3.09496 12.0007H2.61877C2.43467 12.0007 2.28544 11.8514 2.28544 11.6673V11.0007ZM2.61877 8.00065C2.43467 8.00065 2.28544 8.14989 2.28544 8.33398V9.00065C2.28544 9.18475 2.43467 9.33398 2.61877 9.33398H3.09496C3.27905 9.33398 3.42829 9.18475 3.42829 9.00065V8.33398C3.42829 8.14989 3.27905 8.00065 3.09496 8.00065H2.61877ZM2.28544 5.66732C2.28544 5.48322 2.43467 5.33398 2.61877 5.33398H3.09496C3.27905 5.33398 3.42829 5.48322 3.42829 5.66732V6.33398C3.42829 6.51808 3.27905 6.66732 3.09496 6.66732H2.61877C2.43467 6.66732 2.28544 6.51808 2.28544 6.33398V5.66732ZM2.61877 2.66732C2.43467 2.66732 2.28544 2.81656 2.28544 3.00065V3.66732C2.28544 3.85141 2.43467 4.00065 2.61877 4.00065H3.09496C3.27905 4.00065 3.42829 3.85141 3.42829 3.66732V3.00065C3.42829 2.81656 3.27905 2.66732 3.09496 2.66732H2.61877Z" fill="#FFCD4B"/>
</g>
</svg>
