<svg width="28" height="20" viewBox="0 0 28 20" fill="none" xmlns="http://www.w3.org/2000/svg">
<rect width="28" height="20" fill="white"/>
<mask id="mask0_4063_3032" style="mask-type:luminance" maskUnits="userSpaceOnUse" x="0" y="0" width="28" height="20">
<rect width="28" height="20" fill="white"/>
</mask>
<g mask="url(#mask0_4063_3032)">
<path fill-rule="evenodd" clip-rule="evenodd" d="M0 20H28V0H0V20Z" fill="#30C375"/>
<rect x="4" width="4" height="20" fill="#DE414F"/>
<path fill-rule="evenodd" clip-rule="evenodd" d="M6 4.00065C7.10457 4.00065 8 3.4037 8 2.66732C8 1.93094 7.10457 1.33398 6 1.33398C4.89543 1.33398 4 1.93094 4 2.66732C4 3.4037 4.89543 4.00065 6 4.00065Z" fill="white"/>
<mask id="mask1_4063_3032" style="mask-type:luminance" maskUnits="userSpaceOnUse" x="4" y="1" width="4" height="3">
<path fill-rule="evenodd" clip-rule="evenodd" d="M6 4.00065C7.10457 4.00065 8 3.4037 8 2.66732C8 1.93094 7.10457 1.33398 6 1.33398C4.89543 1.33398 4 1.93094 4 2.66732C4 3.4037 4.89543 4.00065 6 4.00065Z" fill="white"/>
</mask>
<g mask="url(#mask1_4063_3032)">
<path fill-rule="evenodd" clip-rule="evenodd" d="M5.99967 3.33333C6.36786 3.33333 6.66634 3.03486 6.66634 2.66667C6.66634 2.29848 6.36786 2 5.99967 2C5.63148 2 5.33301 2.29848 5.33301 2.66667C5.33301 3.03486 5.63148 3.33333 5.99967 3.33333Z" fill="#DD404F"/>
<rect x="4" y="1.33398" width="2" height="1.33333" fill="#FBAF29"/>
<rect x="6" y="2.66797" width="2" height="1.33333" fill="#FBAF29"/>
</g>
<path fill-rule="evenodd" clip-rule="evenodd" d="M6 18.6667C7.10457 18.6667 8 18.0697 8 17.3333C8 16.597 7.10457 16 6 16C4.89543 16 4 16.597 4 17.3333C4 18.0697 4.89543 18.6667 6 18.6667Z" fill="white"/>
<mask id="mask2_4063_3032" style="mask-type:luminance" maskUnits="userSpaceOnUse" x="4" y="16" width="4" height="3">
<path fill-rule="evenodd" clip-rule="evenodd" d="M6 18.6667C7.10457 18.6667 8 18.0697 8 17.3333C8 16.597 7.10457 16 6 16C4.89543 16 4 16.597 4 17.3333C4 18.0697 4.89543 18.6667 6 18.6667Z" fill="white"/>
</mask>
<g mask="url(#mask2_4063_3032)">
<path fill-rule="evenodd" clip-rule="evenodd" d="M5.99967 17.9993C6.36786 17.9993 6.66634 17.7009 6.66634 17.3327C6.66634 16.9645 6.36786 16.666 5.99967 16.666C5.63148 16.666 5.33301 16.9645 5.33301 17.3327C5.33301 17.7009 5.63148 17.9993 5.99967 17.9993Z" fill="#DD404F"/>
<rect x="4" y="16" width="2" height="1.33333" fill="#FBAF29"/>
<rect x="6" y="17.334" width="2" height="1.33333" fill="#FBAF29"/>
</g>
<path fill-rule="evenodd" clip-rule="evenodd" d="M6 12.0007C7.10457 12.0007 8 11.4037 8 10.6673C8 9.93094 7.10457 9.33398 6 9.33398C4.89543 9.33398 4 9.93094 4 10.6673C4 11.4037 4.89543 12.0007 6 12.0007Z" fill="#28AE67"/>
<mask id="mask3_4063_3032" style="mask-type:luminance" maskUnits="userSpaceOnUse" x="4" y="9" width="4" height="3">
<path fill-rule="evenodd" clip-rule="evenodd" d="M6 12.0007C7.10457 12.0007 8 11.4037 8 10.6673C8 9.93094 7.10457 9.33398 6 9.33398C4.89543 9.33398 4 9.93094 4 10.6673C4 11.4037 4.89543 12.0007 6 12.0007Z" fill="white"/>
</mask>
<g mask="url(#mask3_4063_3032)">
<path fill-rule="evenodd" clip-rule="evenodd" d="M6.00033 11.3333C6.73671 11.3333 7.33366 11.0349 7.33366 10.6667C7.33366 10.2985 6.73671 10 6.00033 10C5.26395 10 4.66699 10.2985 4.66699 10.6667C4.66699 11.0349 5.26395 11.3333 6.00033 11.3333Z" fill="#DD404F"/>
</g>
<path fill-rule="evenodd" clip-rule="evenodd" d="M6 14.6673C7.10457 14.6673 8 14.3688 8 14.0007C8 13.6325 7.10457 13.334 6 13.334C4.89543 13.334 4 13.6325 4 14.0007C4 14.3688 4.89543 14.6673 6 14.6673Z" fill="#28AE67"/>
<mask id="mask4_4063_3032" style="mask-type:luminance" maskUnits="userSpaceOnUse" x="4" y="13" width="4" height="2">
<path fill-rule="evenodd" clip-rule="evenodd" d="M6 14.6673C7.10457 14.6673 8 14.3688 8 14.0007C8 13.6325 7.10457 13.334 6 13.334C4.89543 13.334 4 13.6325 4 14.0007C4 14.3688 4.89543 14.6673 6 14.6673Z" fill="white"/>
</mask>
<g mask="url(#mask4_4063_3032)">
</g>
<path fill-rule="evenodd" clip-rule="evenodd" d="M6 8.00065C7.10457 8.00065 8 7.4037 8 6.66732C8 5.93094 7.10457 5.33398 6 5.33398C4.89543 5.33398 4 5.93094 4 6.66732C4 7.4037 4.89543 8.00065 6 8.00065Z" fill="#FBAF29"/>
<mask id="mask5_4063_3032" style="mask-type:luminance" maskUnits="userSpaceOnUse" x="4" y="5" width="4" height="3">
<path fill-rule="evenodd" clip-rule="evenodd" d="M6 8.00065C7.10457 8.00065 8 7.4037 8 6.66732C8 5.93094 7.10457 5.33398 6 5.33398C4.89543 5.33398 4 5.93094 4 6.66732C4 7.4037 4.89543 8.00065 6 8.00065Z" fill="white"/>
</mask>
<g mask="url(#mask5_4063_3032)">
<path fill-rule="evenodd" clip-rule="evenodd" d="M5.99967 7.33333C6.36786 7.33333 6.66634 7.03486 6.66634 6.66667C6.66634 6.29848 6.36786 6 5.99967 6C5.63148 6 5.33301 6.29848 5.33301 6.66667C5.33301 7.03486 5.63148 7.33333 5.99967 7.33333Z" fill="#DD404F"/>
<rect x="4" y="5.33398" width="1.33333" height="2.66667" fill="#28AE67"/>
<rect x="6.66699" y="5.33398" width="1.33333" height="2.66667" fill="#28AE67"/>
</g>
<path fill-rule="evenodd" clip-rule="evenodd" d="M14.823 4.23751C14.5863 4.51956 14.6231 4.94006 14.9051 5.17673C15.1872 5.4134 15.6077 5.37661 15.8444 5.09456C16.081 4.81251 16.0442 4.392 15.7622 4.15533C15.4801 3.91867 15.0596 3.95546 14.823 4.23751ZM13.0955 6.822C12.8135 6.58533 12.393 6.62212 12.1563 6.90417C11.9196 7.18622 11.9564 7.60673 12.2385 7.84339C12.5205 8.08006 12.941 8.04327 13.1777 7.76122C13.4144 7.47917 13.3776 7.05867 13.0955 6.822ZM11.7622 5.48867C11.4801 5.252 11.0596 5.28879 10.823 5.57084C10.5863 5.85289 10.6231 6.27339 10.9051 6.51006C11.1872 6.74673 11.6077 6.70994 11.8444 6.42789C12.081 6.14584 12.0442 5.72534 11.7622 5.48867ZM14.4289 2.822C14.1468 2.58533 13.7263 2.62212 13.4896 2.90417C13.253 3.18622 13.2898 3.60673 13.5718 3.84339C13.8539 4.08006 14.2744 4.04327 14.511 3.76122C14.7477 3.47917 14.7109 3.05867 14.4289 2.822ZM13.7622 4.822C13.4801 4.58533 13.0596 4.62212 12.823 4.90417C12.5863 5.18622 12.6231 5.60673 12.9051 5.84339C13.1872 6.08006 13.6077 6.04327 13.8444 5.76122C14.081 5.47917 14.0442 5.05867 13.7622 4.822Z" fill="white"/>
<path fill-rule="evenodd" clip-rule="evenodd" d="M17.4763 9.45094C15.8883 11.039 13.3135 11.039 11.7255 9.45094C11.5716 9.29706 11.4327 9.13392 11.3086 8.96331C12.8987 10.1195 15.1376 9.98058 16.5718 8.54641C18.006 7.11224 18.1449 4.87333 16.9887 3.2832C17.1593 3.40726 17.3225 3.54623 17.4763 3.7001C19.0644 5.28815 19.0644 7.86289 17.4763 9.45094Z" fill="white"/>
</g>
</svg>
