<svg width="28" height="20" viewBox="0 0 28 20" fill="none" xmlns="http://www.w3.org/2000/svg">
<rect width="28" height="20" fill="white"/>
<mask id="mask0_4063_3097" style="mask-type:luminance" maskUnits="userSpaceOnUse" x="0" y="0" width="28" height="20">
<rect width="28" height="20" fill="white"/>
</mask>
<g mask="url(#mask0_4063_3097)">
<rect width="28" height="20" fill="#F22A46"/>
<path fill-rule="evenodd" clip-rule="evenodd" d="M14.0003 13.3327C15.8413 13.3327 17.3337 11.8403 17.3337 9.99935C17.3337 8.1584 15.8413 6.66602 14.0003 6.66602C12.1594 6.66602 10.667 8.1584 10.667 9.99935C10.667 11.8403 12.1594 13.3327 14.0003 13.3327Z" fill="#FFF04D"/>
<path fill-rule="evenodd" clip-rule="evenodd" d="M12.3685 17.1486L14.0003 14.7127L15.6321 17.1486L16.0455 14.2459L18.5726 15.7325L17.6856 12.938L20.6074 13.1809L18.5958 11.048L21.3337 9.99908L18.5958 8.9502L20.6074 6.81727L17.6856 7.06019L18.5726 4.26565L16.0455 5.75226L15.6321 2.84961L14.0003 5.28547L12.3685 2.84961L11.9552 5.75226L9.42807 4.26565L10.3151 7.06019L7.39322 6.81727L9.40489 8.9502L6.66699 9.99908L9.40489 11.048L7.39322 13.1809L10.3151 12.938L9.42807 15.7325L11.9552 14.2459L12.3685 17.1486ZM18.667 9.99908C18.667 12.5764 16.5777 14.6657 14.0003 14.6657C11.423 14.6657 9.33366 12.5764 9.33366 9.99908C9.33366 7.42175 11.423 5.33241 14.0003 5.33241C16.5777 5.33241 18.667 7.42175 18.667 9.99908Z" fill="#FFF04D"/>
</g>
</svg>
