<svg width="28" height="20" viewBox="0 0 28 20" fill="none" xmlns="http://www.w3.org/2000/svg">
<rect width="28" height="20" fill="white"/>
<mask id="mask0_4063_3121" style="mask-type:luminance" maskUnits="userSpaceOnUse" x="0" y="0" width="28" height="20">
<rect width="28" height="20" fill="white"/>
</mask>
<g mask="url(#mask0_4063_3121)">
<path fill-rule="evenodd" clip-rule="evenodd" d="M28 0H0V1.33333H28V0ZM28 2.66667H0V4H28V2.66667ZM0 5.33333H28V6.66667H0V5.33333ZM28 8H0V9.33333H28V8ZM0 10.6667H28V12H0V10.6667ZM28 13.3333H0V14.6667H28V13.3333ZM0 16H28V17.3333H0V16ZM28 18.6667H0V20H28V18.6667Z" fill="#D02F44"/>
<rect width="12" height="9.33333" fill="#46467F"/>
<g filter="url(#filter0_d_4063_3121)">
<path fill-rule="evenodd" clip-rule="evenodd" d="M2.66634 2.00065C2.66634 2.36884 2.36786 2.66732 1.99967 2.66732C1.63148 2.66732 1.33301 2.36884 1.33301 2.00065C1.33301 1.63246 1.63148 1.33398 1.99967 1.33398C2.36786 1.33398 2.66634 1.63246 2.66634 2.00065ZM5.33301 2.00065C5.33301 2.36884 5.03453 2.66732 4.66634 2.66732C4.29815 2.66732 3.99967 2.36884 3.99967 2.00065C3.99967 1.63246 4.29815 1.33398 4.66634 1.33398C5.03453 1.33398 5.33301 1.63246 5.33301 2.00065ZM7.33301 2.66732C7.7012 2.66732 7.99967 2.36884 7.99967 2.00065C7.99967 1.63246 7.7012 1.33398 7.33301 1.33398C6.96482 1.33398 6.66634 1.63246 6.66634 2.00065C6.66634 2.36884 6.96482 2.66732 7.33301 2.66732ZM10.6663 2.00065C10.6663 2.36884 10.3679 2.66732 9.99967 2.66732C9.63148 2.66732 9.33301 2.36884 9.33301 2.00065C9.33301 1.63246 9.63148 1.33398 9.99967 1.33398C10.3679 1.33398 10.6663 1.63246 10.6663 2.00065ZM3.33301 4.00065C3.7012 4.00065 3.99967 3.70217 3.99967 3.33398C3.99967 2.96579 3.7012 2.66732 3.33301 2.66732C2.96482 2.66732 2.66634 2.96579 2.66634 3.33398C2.66634 3.70217 2.96482 4.00065 3.33301 4.00065ZM6.66634 3.33398C6.66634 3.70217 6.36786 4.00065 5.99967 4.00065C5.63148 4.00065 5.33301 3.70217 5.33301 3.33398C5.33301 2.96579 5.63148 2.66732 5.99967 2.66732C6.36786 2.66732 6.66634 2.96579 6.66634 3.33398ZM8.66634 4.00065C9.03453 4.00065 9.33301 3.70217 9.33301 3.33398C9.33301 2.96579 9.03453 2.66732 8.66634 2.66732C8.29815 2.66732 7.99967 2.96579 7.99967 3.33398C7.99967 3.70217 8.29815 4.00065 8.66634 4.00065ZM10.6663 4.66732C10.6663 5.03551 10.3679 5.33398 9.99967 5.33398C9.63148 5.33398 9.33301 5.03551 9.33301 4.66732C9.33301 4.29913 9.63148 4.00065 9.99967 4.00065C10.3679 4.00065 10.6663 4.29913 10.6663 4.66732ZM7.33301 5.33398C7.7012 5.33398 7.99967 5.03551 7.99967 4.66732C7.99967 4.29913 7.7012 4.00065 7.33301 4.00065C6.96482 4.00065 6.66634 4.29913 6.66634 4.66732C6.66634 5.03551 6.96482 5.33398 7.33301 5.33398ZM5.33301 4.66732C5.33301 5.03551 5.03453 5.33398 4.66634 5.33398C4.29815 5.33398 3.99967 5.03551 3.99967 4.66732C3.99967 4.29913 4.29815 4.00065 4.66634 4.00065C5.03453 4.00065 5.33301 4.29913 5.33301 4.66732ZM1.99967 5.33398C2.36786 5.33398 2.66634 5.03551 2.66634 4.66732C2.66634 4.29913 2.36786 4.00065 1.99967 4.00065C1.63148 4.00065 1.33301 4.29913 1.33301 4.66732C1.33301 5.03551 1.63148 5.33398 1.99967 5.33398ZM3.99967 6.00065C3.99967 6.36884 3.7012 6.66732 3.33301 6.66732C2.96482 6.66732 2.66634 6.36884 2.66634 6.00065C2.66634 5.63246 2.96482 5.33398 3.33301 5.33398C3.7012 5.33398 3.99967 5.63246 3.99967 6.00065ZM5.99967 6.66732C6.36786 6.66732 6.66634 6.36884 6.66634 6.00065C6.66634 5.63246 6.36786 5.33398 5.99967 5.33398C5.63148 5.33398 5.33301 5.63246 5.33301 6.00065C5.33301 6.36884 5.63148 6.66732 5.99967 6.66732ZM9.33301 6.00065C9.33301 6.36884 9.03453 6.66732 8.66634 6.66732C8.29815 6.66732 7.99967 6.36884 7.99967 6.00065C7.99967 5.63246 8.29815 5.33398 8.66634 5.33398C9.03453 5.33398 9.33301 5.63246 9.33301 6.00065ZM9.99967 8.00065C10.3679 8.00065 10.6663 7.70217 10.6663 7.33398C10.6663 6.96579 10.3679 6.66732 9.99967 6.66732C9.63148 6.66732 9.33301 6.96579 9.33301 7.33398C9.33301 7.70217 9.63148 8.00065 9.99967 8.00065ZM7.99967 7.33398C7.99967 7.70217 7.7012 8.00065 7.33301 8.00065C6.96482 8.00065 6.66634 7.70217 6.66634 7.33398C6.66634 6.96579 6.96482 6.66732 7.33301 6.66732C7.7012 6.66732 7.99967 6.96579 7.99967 7.33398ZM4.66634 8.00065C5.03453 8.00065 5.33301 7.70217 5.33301 7.33398C5.33301 6.96579 5.03453 6.66732 4.66634 6.66732C4.29815 6.66732 3.99967 6.96579 3.99967 7.33398C3.99967 7.70217 4.29815 8.00065 4.66634 8.00065ZM2.66634 7.33398C2.66634 7.70217 2.36786 8.00065 1.99967 8.00065C1.63148 8.00065 1.33301 7.70217 1.33301 7.33398C1.33301 6.96579 1.63148 6.66732 1.99967 6.66732C2.36786 6.66732 2.66634 6.96579 2.66634 7.33398Z" fill="url(#paint0_linear_4063_3121)"/>
</g>
</g>
<defs>
<filter id="filter0_d_4063_3121" x="1.33301" y="1.33398" width="9.33301" height="7.66602" filterUnits="userSpaceOnUse" color-interpolation-filters="sRGB">
<feFlood flood-opacity="0" result="BackgroundImageFix"/>
<feColorMatrix in="SourceAlpha" type="matrix" values="0 0 0 0 0 0 0 0 0 0 0 0 0 0 0 0 0 0 127 0" result="hardAlpha"/>
<feOffset dy="1"/>
<feColorMatrix type="matrix" values="0 0 0 0 0 0 0 0 0 0 0 0 0 0 0 0 0 0 0.06 0"/>
<feBlend mode="normal" in2="BackgroundImageFix" result="effect1_dropShadow_4063_3121"/>
<feBlend mode="normal" in="SourceGraphic" in2="effect1_dropShadow_4063_3121" result="shape"/>
</filter>
<linearGradient id="paint0_linear_4063_3121" x1="1.33301" y1="1.33398" x2="1.33301" y2="8.00065" gradientUnits="userSpaceOnUse">
<stop stop-color="white"/>
<stop offset="1" stop-color="#F0F0F0"/>
</linearGradient>
</defs>
</svg>
