<svg width="28" height="20" viewBox="0 0 28 20" fill="none" xmlns="http://www.w3.org/2000/svg">
<rect x="0.25" y="0.25" width="27.5" height="19.5" fill="white" stroke="#F5F5F5" stroke-width="0.5"/>
<mask id="mask0_2028_8708" style="mask-type:luminance" maskUnits="userSpaceOnUse" x="0" y="0" width="28" height="20">
<rect x="0.25" y="0.25" width="27.5" height="19.5" fill="white" stroke="white" stroke-width="0.5"/>
</mask>
<g mask="url(#mask0_2028_8708)">
<path fill-rule="evenodd" clip-rule="evenodd" d="M0 6.66667H28V0H0V6.66667Z" fill="#04AAC8"/>
<path fill-rule="evenodd" clip-rule="evenodd" d="M0 20.0007H28V13.334H0V20.0007Z" fill="#23C840"/>
<path fill-rule="evenodd" clip-rule="evenodd" d="M4.66699 5.33398C5.07827 5.33398 5.46056 5.20984 5.77842 4.99699C5.74159 4.99942 5.70444 5.00065 5.66699 5.00065C4.74652 5.00065 4.00033 4.25446 4.00033 3.33398C4.00033 2.41351 4.74652 1.66732 5.66699 1.66732C5.70444 1.66732 5.74159 1.66855 5.77842 1.67098C5.46056 1.45813 5.07827 1.33398 4.66699 1.33398C3.56242 1.33398 2.66699 2.22941 2.66699 3.33398C2.66699 4.43855 3.56242 5.33398 4.66699 5.33398ZM8.00033 4.66732C8.00033 5.03551 7.70185 5.33398 7.33366 5.33398C6.96547 5.33398 6.66699 5.03551 6.66699 4.66732C6.66699 4.29913 6.96547 4.00065 7.33366 4.00065C7.70185 4.00065 8.00033 4.29913 8.00033 4.66732ZM10.0003 2.66732C10.3685 2.66732 10.667 2.36884 10.667 2.00065C10.667 1.63246 10.3685 1.33398 10.0003 1.33398C9.63214 1.33398 9.33366 1.63246 9.33366 2.00065C9.33366 2.36884 9.63214 2.66732 10.0003 2.66732ZM13.3337 2.00065C13.3337 2.36884 13.0352 2.66732 12.667 2.66732C12.2988 2.66732 12.0003 2.36884 12.0003 2.00065C12.0003 1.63246 12.2988 1.33398 12.667 1.33398C13.0352 1.33398 13.3337 1.63246 13.3337 2.00065ZM12.667 5.33398C13.0352 5.33398 13.3337 5.03551 13.3337 4.66732C13.3337 4.29913 13.0352 4.00065 12.667 4.00065C12.2988 4.00065 12.0003 4.29913 12.0003 4.66732C12.0003 5.03551 12.2988 5.33398 12.667 5.33398ZM10.667 4.66732C10.667 5.03551 10.3685 5.33398 10.0003 5.33398C9.63214 5.33398 9.33366 5.03551 9.33366 4.66732C9.33366 4.29913 9.63214 4.00065 10.0003 4.00065C10.3685 4.00065 10.667 4.29913 10.667 4.66732Z" fill="white"/>
</g>
</svg>
