<svg width="101" height="59" viewBox="0 0 101 59" fill="none" xmlns="http://www.w3.org/2000/svg">
<rect width="56.1404" height="55" fill="#C9C6C6"/>
<rect width="19.2982" height="55" fill="#6F6C6C"/>
<path d="M65.6499 26.4008H61.4043V3.71328C61.4043 2.70495 61.7388 1.86047 62.4078 1.17984C63.1025 0.47401 63.9259 0.121094 64.878 0.121094H71.6324V4.09141H65.6499V11.1623L71.6324 8.13735V12.7883L65.6499 15.8133V26.4008Z" fill="#6F6C6C"/>
<path d="M28.0367 54.9835H19.2979L19.2979 21.1439C19.2979 19.0684 19.9864 17.3302 21.3634 15.9292C22.7934 14.4764 24.4882 13.75 26.4478 13.75H40.3505V21.9222H28.0367V36.4764L40.3505 30.25V39.8231L28.0367 46.0495L28.0367 54.9835Z" fill="#151212"/>
<path d="M74.4199 2.04063L77.7006 0.433594V3.35547L74.4199 4.9625V2.04063ZM74.4199 20.8867V6.42344L77.7006 4.81641V20.8867H74.4199Z" fill="#6F6C6C"/>
<path d="M83.3801 20.8867H80.0994V4.67031H83.3801V6.16047C83.4994 5.90724 83.6585 5.67349 83.8573 5.45922C84.3941 4.93328 85.0304 4.67031 85.7661 4.67031H86.3626C87.0982 4.67031 87.7245 4.94302 88.2415 5.48844C88.7783 6.01438 89.0468 6.66693 89.0468 7.4461V20.8867H85.7661V7.73828H83.3801V20.8867Z" fill="#6F6C6C"/>
<path d="M97.0959 7.73828H94.7099V17.8188H97.0959V7.73828ZM97.0959 19.3966C96.9766 19.6498 96.8175 19.8738 96.6187 20.0686C96.0819 20.614 95.4456 20.8867 94.7099 20.8867H94.1135C93.3778 20.8867 92.7415 20.614 92.2047 20.0686C91.6877 19.5232 91.4292 18.8706 91.4292 18.1109V7.4461C91.4292 6.66693 91.6877 6.01438 92.2047 5.48844C92.7415 4.94302 93.3778 4.67031 94.1135 4.67031H94.7099C95.4456 4.67031 96.0819 4.93328 96.6187 5.45922C96.8175 5.67349 96.9766 5.90724 97.0959 6.16047V2.04063L100.377 0.433594V20.8867H97.0959V19.3966Z" fill="#6F6C6C"/>
<path d="M75.0342 24.2852H76.964V29.3039L78.4552 28.5305V24.2852H80.3851V34.5977C80.3851 35.056 80.2272 35.4456 79.9114 35.7664C79.6073 36.0758 79.2389 36.2305 78.8061 36.2305H76.6131C76.1804 36.2305 75.8061 36.0701 75.4903 35.7492C75.1862 35.4284 75.0342 35.0445 75.0342 34.5977V33.9961L76.964 33.0508V34.4258H78.4552V30.6445L75.0342 32.3633V24.2852Z" fill="#6F6C6C"/>
<path d="M87.0476 28.3242V34.5977C87.0476 35.056 86.8897 35.4456 86.5739 35.7664C86.2698 36.0758 85.9014 36.2305 85.4687 36.2305H83.3634C82.9307 36.2305 82.5564 36.0701 82.2406 35.7492C81.9365 35.4284 81.7845 35.0445 81.7845 34.5977V28.3242C81.7845 27.8659 81.9365 27.482 82.2406 27.1727C82.5564 26.8518 82.9307 26.6914 83.3634 26.6914H85.4687C85.9014 26.6914 86.2698 26.8518 86.5739 27.1727C86.8897 27.482 87.0476 27.8659 87.0476 28.3242ZM85.1178 34.4258V28.4961H83.7143V34.4258H85.1178Z" fill="#6F6C6C"/>
<path d="M91.7824 26.6914H93.7122V36.2305H91.7824V35.3539C91.7122 35.5029 91.6187 35.6346 91.5017 35.7492C91.1859 36.0701 90.8116 36.2305 90.3789 36.2305H90.028C89.5953 36.2305 89.221 36.0758 88.9052 35.7664C88.6011 35.4456 88.4491 35.056 88.4491 34.5977V26.6914H90.3789V34.4258H91.7824V26.6914Z" fill="#6F6C6C"/>
<path d="M97.0435 36.2305H95.1137V26.6914H97.0435V27.568C97.1137 27.419 97.2072 27.2815 97.3242 27.1555C97.64 26.8461 98.0143 26.6914 98.447 26.6914H98.7979C99.2306 26.6914 99.5991 26.8518 99.9031 27.1727C100.219 27.482 100.377 27.8659 100.377 28.3242V29.6133L98.447 30.5586V28.4961H97.0435V36.2305Z" fill="#6F6C6C"/>
<path d="M71.6324 32.6969H65.6499V39.7678L71.6324 36.7428V41.3937L65.6499 44.4187V51.0359H71.6324V55.0062H61.4043V32.3188C61.4043 31.3104 61.7388 30.4659 62.4078 29.7853C63.1025 29.0795 63.9259 28.7266 64.878 28.7266H71.6324V32.6969Z" fill="#C9C6C6"/>
<path d="M82.7304 55.0051H79.8567L78.4322 50.9866L76.9831 55.0051H74.1094L76.9585 48.051L74.2076 41.6504H77.1059L78.4322 45.1876L79.7339 41.6504H82.6322L79.8813 48.051L82.7304 55.0051Z" fill="#C9C6C6"/>
<path d="M86.3799 52.4785H88.3448V44.177H86.3799V52.4785ZM86.3799 42.8776C86.4782 42.669 86.6091 42.4765 86.7729 42.3001C87.215 41.867 87.739 41.6504 88.3448 41.6504H88.836C89.4419 41.6504 89.9577 41.875 90.3834 42.3241C90.8255 42.7733 91.0466 43.3107 91.0466 43.9363V52.7191C91.0466 53.3608 90.8255 53.9062 90.3834 54.3554C89.9577 54.7885 89.4419 55.0051 88.836 55.0051H88.3448C87.739 55.0051 87.215 54.7805 86.7729 54.3313C86.6091 54.1709 86.4782 53.9864 86.3799 53.7779V58.3738H83.6782V41.6504H86.3799V42.8776Z" fill="#C9C6C6"/>
<path d="M100.377 43.9363V52.7191C100.377 53.3608 100.156 53.9062 99.7139 54.3554C99.2881 54.7885 98.7724 55.0051 98.1665 55.0051H95.2191C94.6133 55.0051 94.0893 54.7805 93.6472 54.3313C93.2215 53.8822 93.0086 53.3448 93.0086 52.7191V43.9363C93.0086 43.2947 93.2215 42.7573 93.6472 42.3241C94.0893 41.875 94.6133 41.6504 95.2191 41.6504H98.1665C98.7724 41.6504 99.2881 41.875 99.7139 42.3241C100.156 42.7573 100.377 43.2947 100.377 43.9363ZM97.6753 52.4785V44.177H95.7104V52.4785H97.6753Z" fill="#C9C6C6"/>
</svg>
