<svg width="81" height="47" viewBox="0 0 81 47" fill="none" xmlns="http://www.w3.org/2000/svg">
<rect width="44.9123" height="44" fill="#DD2323"/>
<rect width="15.4386" height="44" fill="#151212"/>
<path d="M52.5195 21.1214H49.123V2.97141C49.123 2.16474 49.3906 1.48916 49.9259 0.944656C50.4816 0.37999 51.1404 0.0976562 51.902 0.0976562H57.3055V3.27391H52.5195V8.93066L57.3055 6.51066V10.2314L52.5195 12.6514V21.1214Z" fill="#151212"/>
<path d="M22.4296 43.9868H15.4385L15.4385 16.9151C15.4385 15.2547 15.9893 13.8642 17.0909 12.7434C18.2349 11.5811 19.5907 11 21.1584 11H32.2806V17.5377H22.4295V29.1811L32.2806 24.2V31.8585L22.4295 36.8396L22.4296 43.9868Z" fill="white"/>
<path d="M59.5361 1.63328L62.1607 0.347656V2.68516L59.5361 3.97078V1.63328ZM59.5361 16.7102V5.13953L62.1607 3.85391V16.7102H59.5361Z" fill="#151212"/>
<path d="M66.7043 16.7102H64.0797V3.73703H66.7043V4.92916C66.7997 4.72657 66.927 4.53957 67.086 4.36816C67.5155 3.94741 68.0245 3.73703 68.613 3.73703H69.0902C69.6788 3.73703 70.1798 3.9552 70.5934 4.39153C71.0229 4.81228 71.2376 5.33432 71.2376 5.95766V16.7102H68.613V6.19141H66.7043V16.7102Z" fill="#151212"/>
<path d="M77.6769 6.19141H75.7681V14.2558H77.6769V6.19141ZM77.6769 15.518C77.5815 15.7206 77.4542 15.8998 77.2952 16.0557C76.8657 16.492 76.3567 16.7102 75.7681 16.7102H75.291C74.7024 16.7102 74.1934 16.492 73.7639 16.0557C73.3504 15.6193 73.1436 15.0973 73.1436 14.4895V5.95766C73.1436 5.33432 73.3504 4.81228 73.7639 4.39153C74.1934 3.9552 74.7024 3.73703 75.291 3.73703H75.7681C76.3567 3.73703 76.8657 3.94741 77.2952 4.36816C77.4542 4.53957 77.5815 4.72657 77.6769 4.92916V1.63328L80.3015 0.347656V16.7102H77.6769V15.518Z" fill="#151212"/>
<path d="M60.0273 19.4277H61.5712V23.4427L62.7642 22.824V19.4277H64.308V27.6777C64.308 28.0444 64.1817 28.3561 63.9291 28.6127C63.6858 28.8602 63.3911 28.984 63.0449 28.984H61.2905C60.9443 28.984 60.6449 28.8557 60.3923 28.599C60.149 28.3423 60.0273 28.0352 60.0273 27.6777V27.1965L61.5712 26.4402V27.5402H62.7642V24.5152L60.0273 25.8902V19.4277Z" fill="#151212"/>
<path d="M69.6381 22.659V27.6777C69.6381 28.0444 69.5118 28.3561 69.2591 28.6127C69.0159 28.8602 68.7211 28.984 68.3749 28.984H66.6907C66.3445 28.984 66.0451 28.8557 65.7925 28.599C65.5492 28.3423 65.4276 28.0352 65.4276 27.6777V22.659C65.4276 22.2923 65.5492 21.9852 65.7925 21.7377C66.0451 21.4811 66.3445 21.3527 66.6907 21.3527H68.3749C68.7211 21.3527 69.0159 21.4811 69.2591 21.7377C69.5118 21.9852 69.6381 22.2923 69.6381 22.659ZM68.0942 27.5402V22.7965H66.9714V27.5402H68.0942Z" fill="#151212"/>
<path d="M73.4259 21.3527H74.9698V28.984H73.4259V28.2827C73.3698 28.4019 73.2949 28.5073 73.2014 28.599C72.9487 28.8557 72.6493 28.984 72.3031 28.984H72.0224C71.6762 28.984 71.3768 28.8602 71.1242 28.6127C70.8809 28.3561 70.7593 28.0444 70.7593 27.6777V21.3527H72.3031V27.5402H73.4259V21.3527Z" fill="#151212"/>
<path d="M77.6348 28.984H76.0909V21.3527H77.6348V22.054C77.6909 21.9348 77.7658 21.8248 77.8594 21.724C78.112 21.4765 78.4114 21.3527 78.7576 21.3527H79.0383C79.3845 21.3527 79.6792 21.4811 79.9225 21.7377C80.1752 21.9852 80.3015 22.2923 80.3015 22.659V23.6902L78.7576 24.4465V22.7965H77.6348V28.984Z" fill="#151212"/>
<path d="M57.3055 26.1567H52.5195V31.8135L57.3055 29.3935V33.1142L52.5195 35.5342V40.828H57.3055V44.0042H49.123V25.8542C49.123 25.0476 49.3906 24.372 49.9259 23.8275C50.4816 23.2628 51.1404 22.9805 51.902 22.9805H57.3055V26.1567Z" fill="#DD2323"/>
<path d="M66.184 44.0041H63.885L62.7454 40.7893L61.5861 44.0041H59.2871L61.5664 38.4408L59.3657 33.3203H61.6843L62.7454 36.1501L63.7868 33.3203H66.1054L63.9047 38.4408L66.184 44.0041Z" fill="#DD2323"/>
<path d="M69.1035 41.9828H70.6755V35.3416H69.1035V41.9828ZM69.1035 34.3021C69.1821 34.1352 69.2869 33.9812 69.4179 33.8401C69.7716 33.4936 70.1908 33.3203 70.6755 33.3203H71.0684C71.5531 33.3203 71.9658 33.5 72.3063 33.8593C72.66 34.2186 72.8369 34.6486 72.8369 35.1491V42.1753C72.8369 42.6886 72.66 43.125 72.3063 43.4843C71.9658 43.8308 71.5531 44.0041 71.0684 44.0041H70.6755C70.1908 44.0041 69.7716 43.8244 69.4179 43.4651C69.2869 43.3367 69.1821 43.1891 69.1035 43.0223V46.6991H66.9421V33.3203H69.1035V34.3021Z" fill="#DD2323"/>
<path d="M80.3012 35.1491V42.1753C80.3012 42.6886 80.1244 43.125 79.7707 43.4843C79.4301 43.8308 79.0175 44.0041 78.5328 44.0041H76.1749C75.6902 44.0041 75.2711 43.8244 74.9174 43.4651C74.5768 43.1057 74.4065 42.6758 74.4065 42.1753V35.1491C74.4065 34.6357 74.5768 34.2058 74.9174 33.8593C75.2711 33.5 75.6902 33.3203 76.1749 33.3203H78.5328C79.0175 33.3203 79.4301 33.5 79.7707 33.8593C80.1244 34.2058 80.3012 34.6357 80.3012 35.1491ZM78.1398 41.9828V35.3416H76.5679V41.9828H78.1398Z" fill="#DD2323"/>
</svg>
