<svg width="32" height="47" viewBox="0 0 32 47" fill="none" xmlns="http://www.w3.org/2000/svg">
<path d="M3.51954 21.1214H0.123047V2.97141C0.123047 2.16474 0.390649 1.48916 0.925854 0.944656C1.48164 0.37999 2.14036 0.0976562 2.90199 0.0976562H8.3055V3.27391H3.51954V8.93066L8.3055 6.51066V10.2314L3.51954 12.6514V21.1214Z" fill="#151212"/>
<path d="M10.5361 1.63328L13.1607 0.347656V2.68516L10.5361 3.97078V1.63328ZM10.5361 16.7102V5.13953L13.1607 3.85391V16.7102H10.5361Z" fill="#151212"/>
<path d="M17.7043 16.7102H15.0797V3.73703H17.7043V4.92916C17.7997 4.72657 17.927 4.53957 18.086 4.36816C18.5155 3.94741 19.0245 3.73703 19.613 3.73703H20.0902C20.6788 3.73703 21.1798 3.9552 21.5934 4.39153C22.0229 4.81228 22.2376 5.33432 22.2376 5.95766V16.7102H19.613V6.19141H17.7043V16.7102Z" fill="#151212"/>
<path d="M28.6769 6.19141H26.7681V14.2558H28.6769V6.19141ZM28.6769 15.518C28.5815 15.7206 28.4542 15.8998 28.2952 16.0557C27.8657 16.492 27.3567 16.7102 26.7681 16.7102H26.291C25.7024 16.7102 25.1934 16.492 24.7639 16.0557C24.3504 15.6193 24.1436 15.0973 24.1436 14.4895V5.95766C24.1436 5.33432 24.3504 4.81228 24.7639 4.39153C25.1934 3.9552 25.7024 3.73703 26.291 3.73703H26.7681C27.3567 3.73703 27.8657 3.94741 28.2952 4.36816C28.4542 4.53957 28.5815 4.72657 28.6769 4.92916V1.63328L31.3015 0.347656V16.7102H28.6769V15.518Z" fill="#151212"/>
<path d="M11.0273 19.4277H12.5712V23.4427L13.7642 22.824V19.4277H15.308V27.6777C15.308 28.0444 15.1817 28.3561 14.9291 28.6127C14.6858 28.8602 14.3911 28.984 14.0449 28.984H12.2905C11.9443 28.984 11.6449 28.8557 11.3923 28.599C11.149 28.3423 11.0273 28.0352 11.0273 27.6777V27.1965L12.5712 26.4402V27.5402H13.7642V24.5152L11.0273 25.8902V19.4277Z" fill="#151212"/>
<path d="M20.6381 22.659V27.6777C20.6381 28.0444 20.5118 28.3561 20.2591 28.6127C20.0159 28.8602 19.7211 28.984 19.3749 28.984H17.6907C17.3445 28.984 17.0451 28.8557 16.7925 28.599C16.5492 28.3423 16.4276 28.0352 16.4276 27.6777V22.659C16.4276 22.2923 16.5492 21.9852 16.7925 21.7377C17.0451 21.4811 17.3445 21.3527 17.6907 21.3527H19.3749C19.7211 21.3527 20.0159 21.4811 20.2591 21.7377C20.5118 21.9852 20.6381 22.2923 20.6381 22.659ZM19.0942 27.5402V22.7965H17.9714V27.5402H19.0942Z" fill="#151212"/>
<path d="M24.4259 21.3527H25.9698V28.984H24.4259V28.2827C24.3698 28.4019 24.2949 28.5073 24.2014 28.599C23.9487 28.8557 23.6493 28.984 23.3031 28.984H23.0224C22.6762 28.984 22.3768 28.8602 22.1242 28.6127C21.8809 28.3561 21.7593 28.0444 21.7593 27.6777V21.3527H23.3031V27.5402H24.4259V21.3527Z" fill="#151212"/>
<path d="M28.6348 28.984H27.0909V21.3527H28.6348V22.054C28.6909 21.9348 28.7658 21.8248 28.8594 21.724C29.112 21.4765 29.4114 21.3527 29.7576 21.3527H30.0383C30.3845 21.3527 30.6792 21.4811 30.9225 21.7377C31.1752 21.9852 31.3015 22.2923 31.3015 22.659V23.6902L29.7576 24.4465V22.7965H28.6348V28.984Z" fill="#151212"/>
<path d="M8.3055 26.1567H3.51954V31.8135L8.3055 29.3935V33.1142L3.51954 35.5342V40.828H8.3055V44.0042H0.123047V25.8542C0.123047 25.0476 0.390649 24.372 0.925854 23.8275C1.48164 23.2628 2.14036 22.9805 2.90199 22.9805H8.3055V26.1567Z" fill="#DD2323"/>
<path d="M17.184 44.0041H14.885L13.7454 40.7893L12.5861 44.0041H10.2871L12.5664 38.4408L10.3657 33.3203H12.6843L13.7454 36.1501L14.7868 33.3203H17.1054L14.9047 38.4408L17.184 44.0041Z" fill="#DD2323"/>
<path d="M20.1035 41.9828H21.6755V35.3416H20.1035V41.9828ZM20.1035 34.3021C20.1821 34.1352 20.2869 33.9812 20.4179 33.8401C20.7716 33.4936 21.1908 33.3203 21.6755 33.3203H22.0684C22.5531 33.3203 22.9658 33.5 23.3063 33.8593C23.66 34.2186 23.8369 34.6486 23.8369 35.1491V42.1753C23.8369 42.6886 23.66 43.125 23.3063 43.4843C22.9658 43.8308 22.5531 44.0041 22.0684 44.0041H21.6755C21.1908 44.0041 20.7716 43.8244 20.4179 43.4651C20.2869 43.3367 20.1821 43.1891 20.1035 43.0223V46.6991H17.9421V33.3203H20.1035V34.3021Z" fill="#DD2323"/>
<path d="M31.3012 35.1491V42.1753C31.3012 42.6886 31.1244 43.125 30.7707 43.4843C30.4301 43.8308 30.0175 44.0041 29.5328 44.0041H27.1749C26.6902 44.0041 26.2711 43.8244 25.9174 43.4651C25.5768 43.1057 25.4065 42.6758 25.4065 42.1753V35.1491C25.4065 34.6357 25.5768 34.2058 25.9174 33.8593C26.2711 33.5 26.6902 33.3203 27.1749 33.3203H29.5328C30.0175 33.3203 30.4301 33.5 30.7707 33.8593C31.1244 34.2058 31.3012 34.6357 31.3012 35.1491ZM29.1398 41.9828V35.3416H27.5679V41.9828H29.1398Z" fill="#DD2323"/>
</svg>
